<svg xmlns="http://www.w3.org/2000/svg">
	<symbol id="arrowDown" viewBox="0 0 32 32" fill="currentColor">
		<g>
    <path d="M0 16c0 8.837 7.163 16 16 16s16-7.163 16-16c0-8.836-7.163-16-16-16s-16 7.163-16 16zM30.032 16c0 7.72-6.312 14-14.032 14s-14-6.28-14-14 6.28-14 14-14 14.032 6.28 14.032 14zM14.989 8.99v11.264l-3.617-3.617c-0.39-0.39-1.024-0.39-1.414 0s-0.39 1.023 0 1.414l6.063 5.907 6.063-5.907c0.195-0.195 0.293-0.451 0.293-0.707s-0.098-0.512-0.293-0.707c-0.39-0.39-1.023-0.39-1.414 0l-3.68 3.68v-11.326c0-0.553-0.448-1-1-1s-1.001 0.447-1.001 1z"></path>
		</g>
	</symbol>
	<symbol id="product" viewBox="0 0 32 32" fill="none">
		<g>
   <g fill="none" fill-rule="evenodd" id="页面-1" stroke="none" stroke-width="1">

<g id="导航图标" transform="translate(-325.000000, -80.000000)">

<g id="编组" transform="translate(325.000000, 80.000000)">

<polygon fill="#FFFFFF" fill-opacity="0.01" fill-rule="nonzero" id="路径" points="24 0 0 0 0 24 24 24"/>

<polygon id="路径" points="22 7 12 2 2 7 2 17 12 22 22 17" stroke="#292D32" stroke-linejoin="round" stroke-width="1.5"/>

<line id="路径" stroke="#292D32" stroke-linecap="round" stroke-linejoin="round" stroke-width="1.5" x1="2" x2="12" y1="7" y2="12"/>

<line id="路径" stroke="#292D32" stroke-linecap="round" stroke-linejoin="round" stroke-width="1.5" x1="12" x2="12" y1="22" y2="12"/>

<line id="路径" stroke="#292D32" stroke-linecap="round" stroke-linejoin="round" stroke-width="1.5" x1="22" x2="12" y1="7" y2="12"/>

<line id="路径" stroke="#292D32" stroke-linecap="round" stroke-linejoin="round" stroke-width="1.5" x1="17" x2="7" y1="4.5" y2="9.5"/>

</g>

</g>

</g>
		</g>
	</symbol>
	<symbol id="email" viewBox="0 0 22 22" fill="none">
		<g>
    <path d="M4 7.00005L10.2 11.65C11.2667 12.45 12.7333 12.45 13.8 11.65L20 7" stroke="#292D32" stroke-width="2" stroke-linecap="round" stroke-linejoin="round"/>
<rect x="3" y="5" width="18" height="14" rx="2" stroke="#292D32" stroke-width="2" stroke-linecap="round"/>
		</g>
	</symbol>
	<symbol id="phone" viewBox="0 0 22 22" fill="none">
		<g>
    <rect width="24" height="24" fill="none"/>
<path fill-rule="evenodd" clip-rule="evenodd" d="M2.14089 4.4021C2.34025 2.92963 3.63956 2 4.99004 2H7.55848C8.84977 2 9.99619 2.82629 10.4045 4.05132L11.454 7.19963C11.905 8.55283 11.1086 10.0036 9.72482 10.3496C9.38646 10.4342 9.26975 10.8555 9.51637 11.1022L12.8978 14.4836C13.1445 14.7303 13.5658 14.6135 13.6504 14.2752C13.9964 12.8914 15.4472 12.095 16.8004 12.546L19.9487 13.5955C21.1737 14.0038 22 15.1502 22 16.4415V19.01C22 20.3604 21.0704 21.6598 19.5979 21.8591C18.9114 21.9521 18.211 22 17.5 22C8.93959 22 2 15.0604 2 6.5C2 5.78898 2.04794 5.08863 2.14089 4.4021Z" fill="#292D32"/>
		</g>
	</symbol>
	<symbol id="user" viewBox="0 0 32 32" fill="none">
		<g>
    <g id="User / User_01">
<path id="Vector" d="M19 21C19 17.134 15.866 14 12 14C8.13401 14 5 17.134 5 21M12 11C9.79086 11 8 9.20914 8 7C8 4.79086 9.79086 3 12 3C14.2091 3 16 4.79086 16 7C16 9.20914 14.2091 11 12 11Z" stroke="#292D32" stroke-width="2" stroke-linecap="round" stroke-linejoin="round"/>
</g>
		</g>
	</symbol>
	<symbol id="user-count" viewBox="0 0 20 20" fill="none">
		<g>
			<g id="User / User_01">
				<path id="Vector" d="M19 21C19 17.134 15.866 14 12 14C8.13401 14 5 17.134 5 21M12 11C9.79086 11 8 9.20914 8 7C8 4.79086 9.79086 3 12 3C14.2091 3 16 4.79086 16 7C16 9.20914 14.2091 11 12 11Z" stroke="#fff" stroke-width="2" stroke-linecap="round" stroke-linejoin="round"/>
			</g>
		</g>
	</symbol>
	<symbol id="star" viewBox="0 0 64 64" fill="none">
		<g>
   <path fill="currentColor" d="M62.799,23.737c-0.47-1.399-1.681-2.419-3.139-2.642l-16.969-2.593L35.069,2.265
	C34.419,0.881,33.03,0,31.504,0c-1.527,0-2.915,0.881-3.565,2.265l-7.623,16.238L3.347,21.096c-1.458,0.223-2.669,1.242-3.138,2.642
	c-0.469,1.4-0.115,2.942,0.916,4l12.392,12.707l-2.935,17.977c-0.242,1.488,0.389,2.984,1.62,3.854
	c1.23,0.87,2.854,0.958,4.177,0.228l15.126-8.365l15.126,8.365c0.597,0.33,1.254,0.492,1.908,0.492c0.796,0,1.592-0.242,2.269-0.72
	c1.231-0.869,1.861-2.365,1.619-3.854l-2.935-17.977l12.393-12.707C62.914,26.68,63.268,25.138,62.799,23.737z"/>
		</g>
	</symbol>
	<symbol id="building" viewBox="0 0 32 32" fill="none">
		<g>
   <path d="M12.5 22.0001H4.07997C2.91997 22.0001 1.96997 21.0701 1.96997 19.9301V5.09011C1.96997 2.47011 3.91997 1.2801 6.30997 2.4501L10.75 4.63011C11.71 5.10011 12.5 6.3501 12.5 7.4101V22.0001Z" stroke="#292D32" stroke-width="1.5" stroke-linecap="round" stroke-linejoin="round"/>
<path d="M21.97 15.0602V18.8402C21.97 21.0002 20.97 22.0002 18.81 22.0002H12.5V10.4202L12.97 10.5202L17.47 11.5302L19.5 11.9802C20.82 12.2702 21.9 12.9502 21.96 14.8702C21.97 14.9302 21.97 14.9902 21.97 15.0602Z" stroke="#292D32" stroke-width="1.5" stroke-linecap="round" stroke-linejoin="round"/>
<path d="M5.5 9H8.97" stroke="#292D32" stroke-width="1.5" stroke-linecap="round" stroke-linejoin="round"/>
<path d="M5.5 13H8.97" stroke="#292D32" stroke-width="1.5" stroke-linecap="round" stroke-linejoin="round"/>
<path d="M17.47 11.53V14.75C17.47 15.99 16.46 17 15.22 17C13.98 17 12.97 15.99 12.97 14.75V10.52L17.47 11.53Z" stroke="#292D32" stroke-width="1.5" stroke-linecap="round" stroke-linejoin="round"/>
<path d="M21.96 14.87C21.9 16.05 20.92 17 19.72 17C18.48 17 17.47 15.99 17.47 14.75V11.53L19.5 11.98C20.82 12.27 21.9 12.95 21.96 14.87Z" stroke="#292D32" stroke-width="1.5" stroke-linecap="round" stroke-linejoin="round"/>
		</g>
	</symbol>
</svg>